ply
format ascii 1.0
comment Created by Blender 2.82 (sub 7) - www.blender.org, source file: 'deckgl-test.blend'
element vertex 90
property float x
property float y
property float z
property float nx
property float ny
property float nz
property float s
property float t
element face 30
property list uchar uint vertex_indices
end_header
1.000000 1.000000 1.000000 0.000000 0.000000 1.000000 0.625000 0.500000
0.000000 1.000000 1.000000 0.000000 0.000000 1.000000 0.750000 0.500000
-1.000000 1.000000 1.000000 0.000000 0.000000 1.000000 0.875000 0.500000
-1.000000 0.500000 1.000000 0.000000 0.000000 1.000000 0.875000 0.562500
-1.000000 0.000000 1.000000 0.000000 0.000000 1.000000 0.875000 0.625000
-1.000000 -0.500000 1.000000 0.000000 0.000000 1.000000 0.875000 0.687500
-1.000000 -1.000000 1.000000 0.000000 0.000000 1.000000 0.875000 0.750000
0.000000 -1.000000 1.000000 0.000000 0.000000 1.000000 0.750000 0.750000
1.000000 -1.000000 1.000000 0.000000 0.000000 1.000000 0.625000 0.750000
1.000000 0.000000 1.000000 0.000000 0.000000 1.000000 0.625000 0.625000
1.000000 -1.000000 -1.000000 0.000000 -1.000000 0.000000 0.375000 0.750000
1.000000 -1.000000 0.000000 0.000000 -1.000000 0.000000 0.500000 0.750000
1.000000 -1.000000 1.000000 0.000000 -1.000000 0.000000 0.625000 0.750000
0.000000 -1.000000 1.000000 0.000000 -1.000000 0.000000 0.625000 0.875000
-1.000000 -1.000000 1.000000 0.000000 -1.000000 0.000000 0.625000 1.000000
-1.000000 -1.000000 0.500000 0.000000 -1.000000 0.000000 0.562500 1.000000
-1.000000 -1.000000 0.000000 0.000000 -1.000000 0.000000 0.500000 1.000000
-1.000000 -1.000000 -0.500000 0.000000 -1.000000 0.000000 0.437500 1.000000
-1.000000 -1.000000 -1.000000 0.000000 -1.000000 0.000000 0.375000 1.000000
0.000000 -1.000000 -1.000000 0.000000 -1.000000 0.000000 0.375000 0.875000
-1.000000 0.500000 0.500000 -1.000000 -0.000000 0.000000 0.562500 0.187500
-1.000000 0.500000 1.000000 -1.000000 -0.000000 0.000000 0.625000 0.187500
-1.000000 1.000000 1.000000 -1.000000 -0.000000 0.000000 0.625000 0.250000
-1.000000 1.000000 0.500000 -1.000000 -0.000000 0.000000 0.562500 0.250000
-1.000000 1.000000 -1.000000 0.000000 0.000000 -1.000000 0.125000 0.500000
0.000000 1.000000 -1.000000 0.000000 0.000000 -1.000000 0.250000 0.500000
1.000000 1.000000 -1.000000 0.000000 0.000000 -1.000000 0.375000 0.500000
1.000000 0.000000 -1.000000 0.000000 0.000000 -1.000000 0.375000 0.625000
1.000000 -1.000000 -1.000000 0.000000 0.000000 -1.000000 0.375000 0.750000
0.000000 -1.000000 -1.000000 0.000000 0.000000 -1.000000 0.250000 0.750000
-1.000000 -1.000000 -1.000000 0.000000 0.000000 -1.000000 0.125000 0.750000
-1.000000 -0.500000 -1.000000 0.000000 0.000000 -1.000000 0.125000 0.687500
-1.000000 0.000000 -1.000000 0.000000 0.000000 -1.000000 0.125000 0.625000
-1.000000 0.500000 -1.000000 0.000000 0.000000 -1.000000 0.125000 0.562500
1.000000 0.000000 0.000000 1.000000 -0.000000 0.000000 0.500000 0.625000
1.000000 0.000000 1.000000 1.000000 -0.000000 0.000000 0.625000 0.625000
1.000000 -1.000000 1.000000 1.000000 -0.000000 0.000000 0.625000 0.750000
1.000000 -1.000000 0.000000 1.000000 -0.000000 0.000000 0.500000 0.750000
-1.000000 1.000000 -1.000000 0.000000 1.000000 0.000000 0.375000 0.250000
-1.000000 1.000000 -0.500000 0.000000 1.000000 0.000000 0.437500 0.250000
-1.000000 1.000000 0.000000 0.000000 1.000000 0.000000 0.500000 0.250000
-1.000000 1.000000 0.500000 0.000000 1.000000 0.000000 0.562500 0.250000
-1.000000 1.000000 1.000000 0.000000 1.000000 0.000000 0.625000 0.250000
0.000000 1.000000 1.000000 0.000000 1.000000 0.000000 0.625000 0.375000
1.000000 1.000000 1.000000 0.000000 1.000000 0.000000 0.625000 0.500000
1.000000 1.000000 0.000000 0.000000 1.000000 0.000000 0.500000 0.500000
1.000000 1.000000 -1.000000 0.000000 1.000000 0.000000 0.375000 0.500000
0.000000 1.000000 -1.000000 0.000000 1.000000 0.000000 0.375000 0.375000
1.000000 -1.000000 1.000000 0.000000 0.000000 -1.000000 0.625000 0.750000
1.000000 0.000000 1.000000 0.000000 0.000000 -1.000000 0.625000 0.625000
1.000000 1.000000 1.000000 0.000000 0.000000 -1.000000 0.625000 0.500000
4.727798 1.000000 1.000000 0.000000 0.000000 -1.000000 0.625000 0.500000
4.727798 -1.000000 1.000000 0.000000 0.000000 -1.000000 0.625000 0.750000
1.000000 -1.000000 1.000000 0.000000 1.000000 0.000000 0.625000 0.750000
4.727798 -1.000000 1.000000 0.000000 1.000000 0.000000 0.625000 0.750000
4.727798 -1.000000 -0.989224 0.000000 1.000000 0.000000 0.625000 0.750000
1.000000 -1.000000 -0.989224 0.000000 1.000000 0.000000 0.625000 0.750000
1.000000 -1.000000 0.005388 0.000000 1.000000 0.000000 0.625000 0.750000
1.000000 0.000000 0.005388 1.000000 0.000000 -0.000000 0.625000 0.625000
1.000000 -1.000000 0.005388 1.000000 0.000000 -0.000000 0.625000 0.750000
1.000000 -1.000000 -0.989224 1.000000 0.000000 -0.000000 0.625000 0.750000
1.000000 0.000000 -0.989224 1.000000 0.000000 -0.000000 0.625000 0.625000
-1.000000 0.500000 -0.500000 -1.000000 -0.000000 0.000000 0.437500 0.187500
-1.000000 0.500000 0.000000 -1.000000 -0.000000 0.000000 0.500000 0.187500
-1.000000 1.000000 0.000000 -1.000000 -0.000000 0.000000 0.500000 0.250000
-1.000000 1.000000 -0.500000 -1.000000 -0.000000 0.000000 0.437500 0.250000
-1.000000 -0.500000 -0.500000 -1.000000 -0.000000 0.000000 0.437500 0.062500
-1.000000 -0.500000 0.000000 -1.000000 -0.000000 0.000000 0.500000 0.062500
-1.000000 0.000000 0.000000 -1.000000 -0.000000 0.000000 0.500000 0.125000
-1.000000 0.000000 -0.500000 -1.000000 -0.000000 0.000000 0.437500 0.125000
-1.000000 -0.500000 0.500000 -1.000000 -0.000000 0.000000 0.562500 0.062500
-1.000000 -0.500000 1.000000 -1.000000 -0.000000 0.000000 0.625000 0.062500
-1.000000 0.000000 1.000000 -1.000000 -0.000000 0.000000 0.625000 0.125000
-1.000000 0.000000 0.500000 -1.000000 -0.000000 0.000000 0.562500 0.125000
-1.000000 -1.000000 0.000000 -1.000000 -0.000000 0.000000 0.500000 0.000000
-1.000000 -1.000000 0.500000 -1.000000 -0.000000 0.000000 0.562500 0.000000
-1.000000 -1.000000 1.000000 -1.000000 -0.000000 0.000000 0.625000 0.000000
-1.000000 -0.500000 -1.000000 -1.000000 -0.000000 0.000000 0.375000 0.062500
-1.000000 0.000000 -1.000000 -1.000000 -0.000000 0.000000 0.375000 0.125000
-1.000000 -1.000000 -1.000000 -1.000000 -0.000000 0.000000 0.375000 0.000000
-1.000000 -1.000000 -0.500000 -1.000000 -0.000000 0.000000 0.437500 0.000000
-1.000000 0.500000 -1.000000 -1.000000 -0.000000 0.000000 0.375000 0.187500
-1.000000 1.000000 -1.000000 -1.000000 -0.000000 0.000000 0.375000 0.250000
1.000000 1.000000 0.005388 1.000000 0.000000 -0.000000 0.625000 0.500000
1.000000 1.000000 -0.989224 1.000000 0.000000 -0.000000 0.625000 0.500000
1.000000 1.000000 1.000000 1.000000 0.000000 -0.000000 0.625000 0.500000
1.000000 0.000000 -1.000000 1.000000 -0.000000 0.000000 0.375000 0.625000
1.000000 -1.000000 -1.000000 1.000000 -0.000000 0.000000 0.375000 0.750000
1.000000 1.000000 -1.000000 1.000000 -0.000000 0.000000 0.375000 0.500000
1.000000 1.000000 0.000000 1.000000 -0.000000 0.000000 0.500000 0.500000
10 0 1 2 3 4 5 6 7 8 9
10 10 11 12 13 14 15 16 17 18 19
4 20 21 22 23
10 24 25 26 27 28 29 30 31 32 33
4 34 35 36 37
10 38 39 40 41 42 43 44 45 46 47
5 48 49 50 51 52
5 53 54 55 56 57
4 58 59 60 61
4 62 63 64 65
4 66 67 68 69
4 70 71 72 73
4 67 70 73 68
4 74 75 70 67
4 75 76 71 70
4 77 66 69 78
4 79 80 66 77
4 80 74 67 66
4 81 62 65 82
4 78 69 62 81
4 69 68 63 62
4 83 58 61 84
4 85 35 58 83
4 35 36 59 58
4 86 34 37 87
4 88 89 34 86
4 89 85 35 34
4 63 20 23 64
4 68 73 20 63
4 73 72 21 20


