ply
format ascii 1.0
comment Created by Blender 2.82 (sub 7) - www.blender.org, source file: 'deckgl-test.blend'
element vertex 43
property float x
property float y
property float z
property float nx
property float ny
property float nz
property float s
property float t
element face 12
property list uchar uint vertex_indices
end_header
1.000000 1.000000 1.000000 0.000000 0.000000 1.000000 0.625000 0.500000
-1.000000 1.000000 1.000000 0.000000 0.000000 1.000000 0.875000 0.500000
-1.000000 0.000000 1.000000 0.000000 0.000000 1.000000 0.875000 0.625000
-1.000000 -1.000000 1.000000 0.000000 0.000000 1.000000 0.875000 0.750000
1.000000 -1.000000 1.000000 0.000000 0.000000 1.000000 0.625000 0.750000
1.000000 -1.000000 -1.000000 0.000000 -1.000000 0.000000 0.375000 0.750000
1.000000 -1.000000 1.000000 0.000000 -1.000000 0.000000 0.625000 0.750000
-1.000000 -1.000000 1.000000 0.000000 -1.000000 0.000000 0.625000 1.000000
-1.000000 -1.000000 0.000000 0.000000 -1.000000 0.000000 0.500000 1.000000
-1.000000 -1.000000 -1.000000 0.000000 -1.000000 0.000000 0.375000 1.000000
-1.000000 0.000000 0.000000 -1.000000 -0.000000 0.000000 0.500000 0.125000
-1.000000 0.000000 1.000000 -1.000000 -0.000000 0.000000 0.625000 0.125000
-1.000000 1.000000 1.000000 -1.000000 -0.000000 0.000000 0.625000 0.250000
-1.000000 1.000000 0.000000 -1.000000 -0.000000 0.000000 0.500000 0.250000
-1.000000 1.000000 -1.000000 0.000000 0.000000 -1.000000 0.125000 0.500000
1.000000 1.000000 -1.000000 0.000000 0.000000 -1.000000 0.375000 0.500000
1.000000 -1.000000 -1.000000 0.000000 0.000000 -1.000000 0.375000 0.750000
-1.000000 -1.000000 -1.000000 0.000000 0.000000 -1.000000 0.125000 0.750000
-1.000000 0.000000 -1.000000 0.000000 0.000000 -1.000000 0.125000 0.625000
1.000000 1.000000 -1.000000 1.000000 -0.000000 0.000000 0.375000 0.500000
1.000000 1.000000 1.000000 1.000000 -0.000000 0.000000 0.625000 0.500000
1.000000 -1.000000 1.000000 1.000000 -0.000000 0.000000 0.625000 0.750000
1.000000 -1.000000 -1.000000 1.000000 -0.000000 0.000000 0.375000 0.750000
-1.000000 1.000000 -1.000000 0.000000 1.000000 0.000000 0.375000 0.250000
-1.000000 1.000000 0.000000 0.000000 1.000000 0.000000 0.500000 0.250000
-1.000000 1.000000 1.000000 0.000000 1.000000 0.000000 0.625000 0.250000
1.000000 1.000000 1.000000 0.000000 1.000000 0.000000 0.625000 0.500000
1.000000 1.000000 -1.000000 0.000000 1.000000 0.000000 0.375000 0.500000
1.000000 -1.000000 1.000000 -0.000000 0.000000 -1.000000 0.625000 0.750000
1.000000 1.000000 1.000000 -0.000000 0.000000 -1.000000 0.625000 0.500000
4.727798 1.000000 1.000000 -0.000000 0.000000 -1.000000 0.625000 0.500000
4.727798 -1.000000 1.000000 -0.000000 0.000000 -1.000000 0.625000 0.750000
1.000000 -1.000000 1.000000 0.000000 1.000000 -0.000000 0.625000 0.750000
4.727798 -1.000000 1.000000 0.000000 1.000000 -0.000000 0.625000 0.750000
4.727798 -1.000000 -0.989224 0.000000 1.000000 -0.000000 0.625000 0.750000
1.000000 -1.000000 -0.989224 0.000000 1.000000 -0.000000 0.625000 0.750000
1.000000 -1.000000 -0.989224 1.000000 0.000000 -0.000000 0.625000 0.750000
1.000000 1.000000 -0.989224 1.000000 0.000000 -0.000000 0.625000 0.500000
-1.000000 0.000000 -1.000000 -1.000000 -0.000000 0.000000 0.375000 0.125000
-1.000000 1.000000 -1.000000 -1.000000 -0.000000 0.000000 0.375000 0.250000
-1.000000 -1.000000 -1.000000 -1.000000 -0.000000 0.000000 0.375000 0.000000
-1.000000 -1.000000 0.000000 -1.000000 -0.000000 0.000000 0.500000 0.000000
-1.000000 -1.000000 1.000000 -1.000000 -0.000000 0.000000 0.625000 0.000000
5 0 1 2 3 4
5 5 6 7 8 9
4 10 11 12 13
5 14 15 16 17 18
4 19 20 21 22
5 23 24 25 26 27
4 28 29 30 31
4 32 33 34 35
4 20 21 36 37
4 38 10 13 39
4 40 41 10 38
4 41 42 11 10

