ply
format ascii 1.0
comment Created by Blender 2.82 (sub 7) - www.blender.org, source file: 'deckgl-test.blend'
element vertex 220
property float x
property float y
property float z
property float nx
property float ny
property float nz
property float s
property float t
element face 144
property list uchar uint vertex_indices
end_header
-0.500000 -0.500000 1.000000 0.000000 -0.000000 1.000000 0.812500 0.687500
-1.000000 -0.500000 1.000000 0.000000 -0.000000 1.000000 0.875000 0.687500
-1.000000 -1.000000 1.000000 0.000000 -0.000000 1.000000 0.875000 0.750000
-0.500000 -1.000000 1.000000 0.000000 -0.000000 1.000000 0.812500 0.750000
-0.500000 -1.000000 0.500000 0.000000 -1.000000 0.000000 0.562500 0.937500
-0.500000 -1.000000 1.000000 0.000000 -1.000000 0.000000 0.625000 0.937500
-1.000000 -1.000000 1.000000 0.000000 -1.000000 0.000000 0.625000 1.000000
-1.000000 -1.000000 0.500000 0.000000 -1.000000 0.000000 0.562500 1.000000
-1.000000 0.500000 0.500000 -1.000000 -0.000000 0.000000 0.562500 0.187500
-1.000000 0.500000 1.000000 -1.000000 -0.000000 0.000000 0.625000 0.187500
-1.000000 1.000000 1.000000 -1.000000 -0.000000 0.000000 0.625000 0.250000
-1.000000 1.000000 0.500000 -1.000000 -0.000000 0.000000 0.562500 0.250000
0.500000 -0.500000 -1.000000 0.000000 0.000000 -1.000000 0.312500 0.687500
1.000000 -0.500000 -1.000000 0.000000 0.000000 -1.000000 0.375000 0.687500
1.000000 -1.000000 -1.000000 0.000000 0.000000 -1.000000 0.375000 0.750000
0.500000 -1.000000 -1.000000 0.000000 0.000000 -1.000000 0.312500 0.750000
1.000000 -0.500000 0.500000 1.000000 -0.000000 0.000000 0.562500 0.687500
1.000000 -0.500000 1.000000 1.000000 -0.000000 0.000000 0.625000 0.687500
1.000000 -1.000000 1.000000 1.000000 -0.000000 0.000000 0.625000 0.750000
1.000000 -1.000000 0.500000 1.000000 -0.000000 0.000000 0.562500 0.750000
0.500000 1.000000 0.500000 0.000000 1.000000 0.000000 0.562500 0.437500
0.500000 1.000000 1.000000 0.000000 1.000000 0.000000 0.625000 0.437500
1.000000 1.000000 1.000000 0.000000 1.000000 0.000000 0.625000 0.500000
1.000000 1.000000 0.500000 0.000000 1.000000 0.000000 0.562500 0.500000
3.795849 0.500000 1.000000 -0.000000 0.000000 -1.000000 0.625000 0.562500
3.795849 1.000000 1.000000 -0.000000 0.000000 -1.000000 0.625000 0.500000
4.727798 1.000000 1.000000 -0.000000 0.000000 -1.000000 0.625000 0.500000
4.727798 0.500000 1.000000 -0.000000 0.000000 -1.000000 0.625000 0.562500
3.795849 -1.000000 -0.491918 0.000000 1.000000 -0.000000 0.625000 0.750000
4.727798 -1.000000 -0.491918 0.000000 1.000000 -0.000000 0.625000 0.750000
4.727798 -1.000000 -0.989224 0.000000 1.000000 -0.000000 0.625000 0.750000
3.795849 -1.000000 -0.989224 0.000000 1.000000 -0.000000 0.625000 0.750000
1.000000 -0.500000 -0.491918 1.000000 0.000000 -0.000000 0.625000 0.687500
1.000000 -1.000000 -0.491918 1.000000 0.000000 -0.000000 0.625000 0.750000
1.000000 -1.000000 -0.989224 1.000000 0.000000 -0.000000 0.625000 0.750000
1.000000 -0.500000 -0.989224 1.000000 0.000000 -0.000000 0.625000 0.687500
1.000000 0.500000 -0.491918 1.000000 0.000000 -0.000000 0.625000 0.562500
1.000000 0.000000 -0.491918 1.000000 0.000000 -0.000000 0.625000 0.625000
1.000000 0.000000 -0.989224 1.000000 0.000000 -0.000000 0.625000 0.625000
1.000000 0.500000 -0.989224 1.000000 0.000000 -0.000000 0.625000 0.562500
1.000000 0.500000 0.502694 1.000000 0.000000 -0.000000 0.625000 0.562500
1.000000 0.000000 0.502694 1.000000 0.000000 -0.000000 0.625000 0.625000
1.000000 0.000000 0.005388 1.000000 0.000000 -0.000000 0.625000 0.625000
1.000000 0.500000 0.005388 1.000000 0.000000 -0.000000 0.625000 0.562500
1.000000 -0.500000 0.502694 1.000000 0.000000 -0.000000 0.625000 0.687500
1.000000 -1.000000 0.502694 1.000000 0.000000 -0.000000 0.625000 0.750000
1.000000 -1.000000 0.005388 1.000000 0.000000 -0.000000 0.625000 0.750000
1.000000 -0.500000 0.005388 1.000000 0.000000 -0.000000 0.625000 0.687500
1.931950 -1.000000 -0.491918 0.000000 1.000000 -0.000000 0.625000 0.750000
2.863899 -1.000000 -0.491918 0.000000 1.000000 -0.000000 0.625000 0.750000
2.863899 -1.000000 -0.989224 0.000000 1.000000 -0.000000 0.625000 0.750000
1.931950 -1.000000 -0.989224 0.000000 1.000000 -0.000000 0.625000 0.750000
1.931950 -1.000000 0.502694 0.000000 1.000000 -0.000000 0.625000 0.750000
2.863899 -1.000000 0.502694 0.000000 1.000000 -0.000000 0.625000 0.750000
2.863899 -1.000000 0.005388 0.000000 1.000000 -0.000000 0.625000 0.750000
1.931950 -1.000000 0.005388 0.000000 1.000000 -0.000000 0.625000 0.750000
3.795849 -1.000000 0.502694 0.000000 1.000000 -0.000000 0.625000 0.750000
4.727798 -1.000000 0.502694 0.000000 1.000000 -0.000000 0.625000 0.750000
4.727798 -1.000000 0.005388 0.000000 1.000000 -0.000000 0.625000 0.750000
3.795849 -1.000000 0.005388 0.000000 1.000000 -0.000000 0.625000 0.750000
3.795849 -0.500000 1.000000 -0.000000 0.000000 -1.000000 0.625000 0.687500
3.795849 0.000000 1.000000 -0.000000 0.000000 -1.000000 0.625000 0.625000
4.727798 0.000000 1.000000 -0.000000 0.000000 -1.000000 0.625000 0.625000
4.727798 -0.500000 1.000000 -0.000000 0.000000 -1.000000 0.625000 0.687500
1.931950 -0.500000 1.000000 -0.000000 0.000000 -1.000000 0.625000 0.687500
1.931950 0.000000 1.000000 -0.000000 0.000000 -1.000000 0.625000 0.625000
2.863899 0.000000 1.000000 -0.000000 0.000000 -1.000000 0.625000 0.625000
2.863899 -0.500000 1.000000 -0.000000 0.000000 -1.000000 0.625000 0.687500
1.931950 0.500000 1.000000 -0.000000 0.000000 -1.000000 0.625000 0.562500
1.931950 1.000000 1.000000 -0.000000 0.000000 -1.000000 0.625000 0.500000
2.863899 1.000000 1.000000 -0.000000 0.000000 -1.000000 0.625000 0.500000
2.863899 0.500000 1.000000 -0.000000 0.000000 -1.000000 0.625000 0.562500
0.500000 1.000000 -0.500000 0.000000 1.000000 0.000000 0.437500 0.437500
0.500000 1.000000 0.000000 0.000000 1.000000 0.000000 0.500000 0.437500
1.000000 1.000000 0.000000 0.000000 1.000000 0.000000 0.500000 0.500000
1.000000 1.000000 -0.500000 0.000000 1.000000 0.000000 0.437500 0.500000
-0.500000 1.000000 -0.500000 0.000000 1.000000 0.000000 0.437500 0.312500
-0.500000 1.000000 0.000000 0.000000 1.000000 0.000000 0.500000 0.312500
0.000000 1.000000 0.000000 0.000000 1.000000 0.000000 0.500000 0.375000
0.000000 1.000000 -0.500000 0.000000 1.000000 0.000000 0.437500 0.375000
-0.500000 1.000000 0.500000 0.000000 1.000000 0.000000 0.562500 0.312500
-0.500000 1.000000 1.000000 0.000000 1.000000 0.000000 0.625000 0.312500
0.000000 1.000000 1.000000 0.000000 1.000000 0.000000 0.625000 0.375000
0.000000 1.000000 0.500000 0.000000 1.000000 0.000000 0.562500 0.375000
1.000000 -0.500000 -0.500000 1.000000 -0.000000 0.000000 0.437500 0.687500
1.000000 -0.500000 0.000000 1.000000 -0.000000 0.000000 0.500000 0.687500
1.000000 -1.000000 0.000000 1.000000 -0.000000 0.000000 0.500000 0.750000
1.000000 -1.000000 -0.500000 1.000000 -0.000000 0.000000 0.437500 0.750000
1.000000 0.500000 -0.500000 1.000000 -0.000000 0.000000 0.437500 0.562500
1.000000 0.500000 0.000000 1.000000 -0.000000 0.000000 0.500000 0.562500
1.000000 0.000000 0.000000 1.000000 -0.000000 0.000000 0.500000 0.625000
1.000000 0.000000 -0.500000 1.000000 -0.000000 0.000000 0.437500 0.625000
1.000000 0.500000 0.500000 1.000000 -0.000000 0.000000 0.562500 0.562500
1.000000 0.500000 1.000000 1.000000 -0.000000 0.000000 0.625000 0.562500
1.000000 0.000000 1.000000 1.000000 -0.000000 0.000000 0.625000 0.625000
1.000000 0.000000 0.500000 1.000000 -0.000000 0.000000 0.562500 0.625000
-0.500000 -0.500000 -1.000000 0.000000 0.000000 -1.000000 0.187500 0.687500
0.000000 -0.500000 -1.000000 0.000000 0.000000 -1.000000 0.250000 0.687500
0.000000 -1.000000 -1.000000 0.000000 0.000000 -1.000000 0.250000 0.750000
-0.500000 -1.000000 -1.000000 0.000000 0.000000 -1.000000 0.187500 0.750000
-0.500000 0.500000 -1.000000 0.000000 0.000000 -1.000000 0.187500 0.562500
0.000000 0.500000 -1.000000 0.000000 0.000000 -1.000000 0.250000 0.562500
0.000000 0.000000 -1.000000 0.000000 0.000000 -1.000000 0.250000 0.625000
-0.500000 0.000000 -1.000000 0.000000 0.000000 -1.000000 0.187500 0.625000
0.500000 0.500000 -1.000000 0.000000 0.000000 -1.000000 0.312500 0.562500
1.000000 0.500000 -1.000000 0.000000 0.000000 -1.000000 0.375000 0.562500
1.000000 0.000000 -1.000000 0.000000 0.000000 -1.000000 0.375000 0.625000
0.500000 0.000000 -1.000000 0.000000 0.000000 -1.000000 0.312500 0.625000
-1.000000 0.500000 -0.500000 -1.000000 -0.000000 0.000000 0.437500 0.187500
-1.000000 0.500000 0.000000 -1.000000 -0.000000 0.000000 0.500000 0.187500
-1.000000 1.000000 0.000000 -1.000000 -0.000000 0.000000 0.500000 0.250000
-1.000000 1.000000 -0.500000 -1.000000 -0.000000 0.000000 0.437500 0.250000
-1.000000 -0.500000 -0.500000 -1.000000 -0.000000 0.000000 0.437500 0.062500
-1.000000 -0.500000 0.000000 -1.000000 -0.000000 0.000000 0.500000 0.062500
-1.000000 0.000000 0.000000 -1.000000 -0.000000 0.000000 0.500000 0.125000
-1.000000 0.000000 -0.500000 -1.000000 -0.000000 0.000000 0.437500 0.125000
-1.000000 -0.500000 0.500000 -1.000000 -0.000000 0.000000 0.562500 0.062500
-1.000000 -0.500000 1.000000 -1.000000 -0.000000 0.000000 0.625000 0.062500
-1.000000 0.000000 1.000000 -1.000000 -0.000000 0.000000 0.625000 0.125000
-1.000000 0.000000 0.500000 -1.000000 -0.000000 0.000000 0.562500 0.125000
-0.500000 -1.000000 -0.500000 0.000000 -1.000000 0.000000 0.437500 0.937500
-0.500000 -1.000000 0.000000 0.000000 -1.000000 0.000000 0.500000 0.937500
-1.000000 -1.000000 0.000000 0.000000 -1.000000 0.000000 0.500000 1.000000
-1.000000 -1.000000 -0.500000 0.000000 -1.000000 0.000000 0.437500 1.000000
0.500000 -1.000000 -0.500000 0.000000 -1.000000 0.000000 0.437500 0.812500
0.500000 -1.000000 0.000000 0.000000 -1.000000 0.000000 0.500000 0.812500
0.000000 -1.000000 0.000000 0.000000 -1.000000 0.000000 0.500000 0.875000
0.000000 -1.000000 -0.500000 0.000000 -1.000000 0.000000 0.437500 0.875000
0.500000 -1.000000 0.500000 0.000000 -1.000000 0.000000 0.562500 0.812500
0.500000 -1.000000 1.000000 0.000000 -1.000000 0.000000 0.625000 0.812500
0.000000 -1.000000 1.000000 0.000000 -1.000000 0.000000 0.625000 0.875000
0.000000 -1.000000 0.500000 0.000000 -1.000000 0.000000 0.562500 0.875000
0.500000 -0.500000 1.000000 0.000000 -0.000000 1.000000 0.687500 0.687500
0.000000 -0.500000 1.000000 0.000000 -0.000000 1.000000 0.750000 0.687500
0.000000 -1.000000 1.000000 0.000000 -0.000000 1.000000 0.750000 0.750000
0.500000 -1.000000 1.000000 0.000000 -0.000000 1.000000 0.687500 0.750000
0.500000 0.500000 1.000000 0.000000 -0.000000 1.000000 0.687500 0.562500
0.000000 0.500000 1.000000 0.000000 -0.000000 1.000000 0.750000 0.562500
0.000000 0.000000 1.000000 0.000000 -0.000000 1.000000 0.750000 0.625000
0.500000 0.000000 1.000000 0.000000 -0.000000 1.000000 0.687500 0.625000
-0.500000 0.500000 1.000000 0.000000 -0.000000 1.000000 0.812500 0.562500
-1.000000 0.500000 1.000000 0.000000 -0.000000 1.000000 0.875000 0.562500
-1.000000 0.000000 1.000000 0.000000 -0.000000 1.000000 0.875000 0.625000
-0.500000 0.000000 1.000000 0.000000 -0.000000 1.000000 0.812500 0.625000
0.000000 1.000000 1.000000 0.000000 -0.000000 1.000000 0.750000 0.500000
-0.500000 1.000000 1.000000 0.000000 -0.000000 1.000000 0.812500 0.500000
-1.000000 1.000000 1.000000 0.000000 -0.000000 1.000000 0.875000 0.500000
1.000000 0.500000 1.000000 0.000000 -0.000000 1.000000 0.625000 0.562500
1.000000 0.000000 1.000000 0.000000 -0.000000 1.000000 0.625000 0.625000
1.000000 1.000000 1.000000 0.000000 -0.000000 1.000000 0.625000 0.500000
0.500000 1.000000 1.000000 0.000000 -0.000000 1.000000 0.687500 0.500000
1.000000 -0.500000 1.000000 0.000000 -0.000000 1.000000 0.625000 0.687500
1.000000 -1.000000 1.000000 0.000000 -0.000000 1.000000 0.625000 0.750000
1.000000 -1.000000 0.000000 0.000000 -1.000000 0.000000 0.500000 0.750000
1.000000 -1.000000 0.500000 0.000000 -1.000000 0.000000 0.562500 0.750000
1.000000 -1.000000 1.000000 0.000000 -1.000000 0.000000 0.625000 0.750000
0.500000 -1.000000 -1.000000 0.000000 -1.000000 0.000000 0.375000 0.812500
0.000000 -1.000000 -1.000000 0.000000 -1.000000 0.000000 0.375000 0.875000
1.000000 -1.000000 -1.000000 0.000000 -1.000000 0.000000 0.375000 0.750000
1.000000 -1.000000 -0.500000 0.000000 -1.000000 0.000000 0.437500 0.750000
-0.500000 -1.000000 -1.000000 0.000000 -1.000000 0.000000 0.375000 0.937500
-1.000000 -1.000000 -1.000000 0.000000 -1.000000 0.000000 0.375000 1.000000
-1.000000 -1.000000 0.000000 -1.000000 -0.000000 0.000000 0.500000 0.000000
-1.000000 -1.000000 0.500000 -1.000000 -0.000000 0.000000 0.562500 0.000000
-1.000000 -1.000000 1.000000 -1.000000 -0.000000 0.000000 0.625000 0.000000
-1.000000 -0.500000 -1.000000 -1.000000 -0.000000 0.000000 0.375000 0.062500
-1.000000 0.000000 -1.000000 -1.000000 -0.000000 0.000000 0.375000 0.125000
-1.000000 -1.000000 -1.000000 -1.000000 -0.000000 0.000000 0.375000 0.000000
-1.000000 -1.000000 -0.500000 -1.000000 -0.000000 0.000000 0.437500 0.000000
-1.000000 0.500000 -1.000000 -1.000000 -0.000000 0.000000 0.375000 0.187500
-1.000000 1.000000 -1.000000 -1.000000 -0.000000 0.000000 0.375000 0.250000
0.000000 1.000000 -1.000000 0.000000 0.000000 -1.000000 0.250000 0.500000
0.500000 1.000000 -1.000000 0.000000 0.000000 -1.000000 0.312500 0.500000
1.000000 1.000000 -1.000000 0.000000 0.000000 -1.000000 0.375000 0.500000
-1.000000 0.500000 -1.000000 0.000000 0.000000 -1.000000 0.125000 0.562500
-1.000000 0.000000 -1.000000 0.000000 0.000000 -1.000000 0.125000 0.625000
-1.000000 1.000000 -1.000000 0.000000 0.000000 -1.000000 0.125000 0.500000
-0.500000 1.000000 -1.000000 0.000000 0.000000 -1.000000 0.187500 0.500000
-1.000000 -0.500000 -1.000000 0.000000 0.000000 -1.000000 0.125000 0.687500
-1.000000 -1.000000 -1.000000 0.000000 0.000000 -1.000000 0.125000 0.750000
1.000000 1.000000 0.000000 1.000000 -0.000000 0.000000 0.500000 0.500000
1.000000 1.000000 0.500000 1.000000 -0.000000 0.000000 0.562500 0.500000
1.000000 1.000000 1.000000 1.000000 -0.000000 0.000000 0.625000 0.500000
1.000000 0.500000 -1.000000 1.000000 -0.000000 0.000000 0.375000 0.562500
1.000000 0.000000 -1.000000 1.000000 -0.000000 0.000000 0.375000 0.625000
1.000000 1.000000 -1.000000 1.000000 -0.000000 0.000000 0.375000 0.500000
1.000000 1.000000 -0.500000 1.000000 -0.000000 0.000000 0.437500 0.500000
1.000000 -0.500000 -1.000000 1.000000 -0.000000 0.000000 0.375000 0.687500
1.000000 -1.000000 -1.000000 1.000000 -0.000000 0.000000 0.375000 0.750000
-1.000000 1.000000 0.000000 0.000000 1.000000 0.000000 0.500000 0.250000
-1.000000 1.000000 0.500000 0.000000 1.000000 0.000000 0.562500 0.250000
-1.000000 1.000000 1.000000 0.000000 1.000000 0.000000 0.625000 0.250000
-0.500000 1.000000 -1.000000 0.000000 1.000000 0.000000 0.375000 0.312500
0.000000 1.000000 -1.000000 0.000000 1.000000 0.000000 0.375000 0.375000
-1.000000 1.000000 -1.000000 0.000000 1.000000 0.000000 0.375000 0.250000
-1.000000 1.000000 -0.500000 0.000000 1.000000 0.000000 0.437500 0.250000
0.500000 1.000000 -1.000000 0.000000 1.000000 0.000000 0.375000 0.437500
1.000000 1.000000 -1.000000 0.000000 1.000000 0.000000 0.375000 0.500000
1.000000 0.000000 1.000000 -0.000000 0.000000 -1.000000 0.625000 0.625000
1.000000 0.500000 1.000000 -0.000000 0.000000 -1.000000 0.625000 0.562500
1.000000 1.000000 1.000000 -0.000000 0.000000 -1.000000 0.625000 0.500000
1.931950 -1.000000 1.000000 -0.000000 0.000000 -1.000000 0.625000 0.750000
2.863899 -1.000000 1.000000 -0.000000 0.000000 -1.000000 0.625000 0.750000
1.000000 -1.000000 1.000000 -0.000000 0.000000 -1.000000 0.625000 0.750000
1.000000 -0.500000 1.000000 -0.000000 0.000000 -1.000000 0.625000 0.687500
3.795849 -1.000000 1.000000 -0.000000 0.000000 -1.000000 0.625000 0.750000
4.727798 -1.000000 1.000000 -0.000000 0.000000 -1.000000 0.625000 0.750000
2.863899 -1.000000 1.000000 0.000000 1.000000 -0.000000 0.625000 0.750000
3.795849 -1.000000 1.000000 0.000000 1.000000 -0.000000 0.625000 0.750000
4.727798 -1.000000 1.000000 0.000000 1.000000 -0.000000 0.625000 0.750000
1.000000 -1.000000 0.502694 0.000000 1.000000 -0.000000 0.625000 0.750000
1.000000 -1.000000 0.005388 0.000000 1.000000 -0.000000 0.625000 0.750000
1.000000 -1.000000 1.000000 0.000000 1.000000 -0.000000 0.625000 0.750000
1.931950 -1.000000 1.000000 0.000000 1.000000 -0.000000 0.625000 0.750000
1.000000 -1.000000 -0.491918 0.000000 1.000000 -0.000000 0.625000 0.750000
1.000000 -1.000000 -0.989224 0.000000 1.000000 -0.000000 0.625000 0.750000
1.000000 1.000000 0.502694 1.000000 0.000000 -0.000000 0.625000 0.500000
1.000000 1.000000 0.005388 1.000000 0.000000 -0.000000 0.625000 0.500000
1.000000 1.000000 -0.491918 1.000000 0.000000 -0.000000 0.625000 0.500000
1.000000 1.000000 -0.989224 1.000000 0.000000 -0.000000 0.625000 0.500000
4 0 1 2 3
4 4 5 6 7
4 8 9 10 11
4 12 13 14 15
4 16 17 18 19
4 20 21 22 23
4 24 25 26 27
4 28 29 30 31
4 32 33 34 35
4 36 37 38 39
4 40 41 42 43
4 44 45 46 47
4 48 49 50 51
4 52 53 54 55
4 56 57 58 59
4 60 61 62 63
4 64 65 66 67
4 68 69 70 71
4 72 73 74 75
4 76 77 78 79
4 80 81 82 83
4 84 85 86 87
4 88 89 90 91
4 92 93 94 95
4 96 97 98 99
4 100 101 102 103
4 104 105 106 107
4 108 109 110 111
4 112 113 114 115
4 116 117 118 119
4 120 121 122 123
4 124 125 126 127
4 128 129 130 131
4 132 133 134 135
4 136 137 138 139
4 140 141 142 143
4 137 140 143 138
4 144 145 140 137
4 145 146 141 140
4 147 136 139 148
4 149 150 136 147
4 150 144 137 136
4 151 132 135 152
4 148 139 132 151
4 139 138 133 132
4 125 128 131 126
4 153 154 128 125
4 154 155 129 128
4 156 124 127 157
4 158 159 124 156
4 159 153 125 124
4 160 120 123 161
4 157 127 120 160
4 127 126 121 120
4 113 116 119 114
4 162 163 116 113
4 163 164 117 116
4 165 112 115 166
4 167 168 112 165
4 168 162 113 112
4 169 108 111 170
4 166 115 108 169
4 115 114 109 108
4 101 104 107 102
4 171 172 104 101
4 172 173 105 104
4 174 100 103 175
4 176 177 100 174
4 177 171 101 100
4 178 96 99 179
4 175 103 96 178
4 103 102 97 96
4 89 92 95 90
4 180 181 92 89
4 181 182 93 92
4 183 88 91 184
4 185 186 88 183
4 186 180 89 88
4 187 84 87 188
4 184 91 84 187
4 91 90 85 84
4 77 80 83 78
4 189 190 80 77
4 190 191 81 80
4 192 76 79 193
4 194 195 76 192
4 195 189 77 76
4 196 72 75 197
4 193 79 72 196
4 79 78 73 72
4 65 68 71 66
4 198 199 68 65
4 199 200 69 68
4 201 64 67 202
4 203 204 64 201
4 204 198 65 64
4 205 60 63 206
4 202 67 60 205
4 67 66 61 60
4 53 56 59 54
4 207 208 56 53
4 208 209 57 56
4 210 52 55 211
4 212 213 52 210
4 213 207 53 52
4 214 48 51 215
4 211 55 48 214
4 55 54 49 48
4 41 44 47 42
4 94 17 44 41
4 17 18 45 44
4 216 40 43 217
4 182 93 40 216
4 93 94 41 40
4 218 36 39 219
4 217 43 36 218
4 43 42 37 36
4 37 32 35 38
4 42 47 32 37
4 47 46 33 32
4 49 28 31 50
4 54 59 28 49
4 59 58 29 28
4 61 24 27 62
4 66 71 24 61
4 71 70 25 24
4 73 20 23 74
4 78 83 20 73
4 83 82 21 20
4 85 16 19 86
4 90 95 16 85
4 95 94 17 16
4 97 12 15 98
4 102 107 12 97
4 107 106 13 12
4 109 8 11 110
4 114 119 8 109
4 119 118 9 8
4 121 4 7 122
4 126 131 4 121
4 131 130 5 4
4 133 0 3 134
4 138 143 0 133
4 143 142 1 0

