ply
format ascii 1.0
comment Created by Blender 2.82 (sub 7) - www.blender.org, source file: 'deckgl-test.blend'
element vertex 78
property float x
property float y
property float z
property float nx
property float ny
property float nz
property float s
property float t
element face 36
property list uchar uint vertex_indices
end_header
0.000000 0.000000 1.000000 0.000000 -0.000000 1.000000 0.750000 0.625000
-1.000000 0.000000 1.000000 0.000000 -0.000000 1.000000 0.875000 0.625000
-1.000000 -1.000000 1.000000 0.000000 -0.000000 1.000000 0.875000 0.750000
0.000000 -1.000000 1.000000 0.000000 -0.000000 1.000000 0.750000 0.750000
0.000000 -1.000000 0.000000 0.000000 -1.000000 0.000000 0.500000 0.875000
0.000000 -1.000000 1.000000 0.000000 -1.000000 0.000000 0.625000 0.875000
-1.000000 -1.000000 1.000000 0.000000 -1.000000 0.000000 0.625000 1.000000
-1.000000 -1.000000 0.000000 0.000000 -1.000000 0.000000 0.500000 1.000000
-1.000000 0.000000 0.000000 -1.000000 -0.000000 0.000000 0.500000 0.125000
-1.000000 0.000000 1.000000 -1.000000 -0.000000 0.000000 0.625000 0.125000
-1.000000 1.000000 1.000000 -1.000000 -0.000000 0.000000 0.625000 0.250000
-1.000000 1.000000 0.000000 -1.000000 -0.000000 0.000000 0.500000 0.250000
0.000000 0.000000 -1.000000 0.000000 0.000000 -1.000000 0.250000 0.625000
1.000000 0.000000 -1.000000 0.000000 0.000000 -1.000000 0.375000 0.625000
1.000000 -1.000000 -1.000000 0.000000 0.000000 -1.000000 0.375000 0.750000
0.000000 -1.000000 -1.000000 0.000000 0.000000 -1.000000 0.250000 0.750000
1.000000 0.000000 0.000000 1.000000 -0.000000 0.000000 0.500000 0.625000
1.000000 0.000000 1.000000 1.000000 -0.000000 0.000000 0.625000 0.625000
1.000000 -1.000000 1.000000 1.000000 -0.000000 0.000000 0.625000 0.750000
1.000000 -1.000000 0.000000 1.000000 -0.000000 0.000000 0.500000 0.750000
0.000000 1.000000 0.000000 0.000000 1.000000 0.000000 0.500000 0.375000
0.000000 1.000000 1.000000 0.000000 1.000000 0.000000 0.625000 0.375000
1.000000 1.000000 1.000000 0.000000 1.000000 0.000000 0.625000 0.500000
1.000000 1.000000 0.000000 0.000000 1.000000 0.000000 0.500000 0.500000
2.863899 0.000000 1.000000 -0.000000 0.000000 -1.000000 0.625000 0.625000
2.863899 1.000000 1.000000 -0.000000 0.000000 -1.000000 0.625000 0.500000
4.727798 1.000000 1.000000 -0.000000 0.000000 -1.000000 0.625000 0.500000
4.727798 0.000000 1.000000 -0.000000 0.000000 -1.000000 0.625000 0.625000
2.863899 -1.000000 0.005388 0.000000 1.000000 -0.000000 0.625000 0.750000
4.727798 -1.000000 0.005388 0.000000 1.000000 -0.000000 0.625000 0.750000
4.727798 -1.000000 -0.989224 0.000000 1.000000 -0.000000 0.625000 0.750000
2.863899 -1.000000 -0.989224 0.000000 1.000000 -0.000000 0.625000 0.750000
1.000000 0.000000 0.005388 1.000000 0.000000 -0.000000 0.625000 0.625000
1.000000 -1.000000 0.005388 1.000000 0.000000 -0.000000 0.625000 0.750000
1.000000 -1.000000 -0.989224 1.000000 0.000000 -0.000000 0.625000 0.750000
1.000000 0.000000 -0.989224 1.000000 0.000000 -0.000000 0.625000 0.625000
1.000000 1.000000 0.005388 1.000000 0.000000 -0.000000 0.625000 0.500000
1.000000 1.000000 -0.989224 1.000000 0.000000 -0.000000 0.625000 0.500000
1.000000 1.000000 1.000000 1.000000 0.000000 -0.000000 0.625000 0.500000
1.000000 -1.000000 0.005388 0.000000 1.000000 -0.000000 0.625000 0.750000
1.000000 -1.000000 -0.989224 0.000000 1.000000 -0.000000 0.625000 0.750000
1.000000 -1.000000 1.000000 0.000000 1.000000 -0.000000 0.625000 0.750000
2.863899 -1.000000 1.000000 0.000000 1.000000 -0.000000 0.625000 0.750000
4.727798 -1.000000 1.000000 0.000000 1.000000 -0.000000 0.625000 0.750000
2.863899 -1.000000 1.000000 -0.000000 0.000000 -1.000000 0.625000 0.750000
4.727798 -1.000000 1.000000 -0.000000 0.000000 -1.000000 0.625000 0.750000
1.000000 -1.000000 1.000000 -0.000000 0.000000 -1.000000 0.625000 0.750000
1.000000 0.000000 1.000000 -0.000000 0.000000 -1.000000 0.625000 0.625000
1.000000 1.000000 1.000000 -0.000000 0.000000 -1.000000 0.625000 0.500000
0.000000 1.000000 -1.000000 0.000000 1.000000 0.000000 0.375000 0.375000
1.000000 1.000000 -1.000000 0.000000 1.000000 0.000000 0.375000 0.500000
-1.000000 1.000000 -1.000000 0.000000 1.000000 0.000000 0.375000 0.250000
-1.000000 1.000000 0.000000 0.000000 1.000000 0.000000 0.500000 0.250000
-1.000000 1.000000 1.000000 0.000000 1.000000 0.000000 0.625000 0.250000
1.000000 0.000000 -1.000000 1.000000 -0.000000 0.000000 0.375000 0.625000
1.000000 -1.000000 -1.000000 1.000000 -0.000000 0.000000 0.375000 0.750000
1.000000 1.000000 -1.000000 1.000000 -0.000000 0.000000 0.375000 0.500000
1.000000 1.000000 0.000000 1.000000 -0.000000 0.000000 0.500000 0.500000
-1.000000 0.000000 -1.000000 0.000000 0.000000 -1.000000 0.125000 0.625000
-1.000000 -1.000000 -1.000000 0.000000 0.000000 -1.000000 0.125000 0.750000
-1.000000 1.000000 -1.000000 0.000000 0.000000 -1.000000 0.125000 0.500000
0.000000 1.000000 -1.000000 0.000000 0.000000 -1.000000 0.250000 0.500000
1.000000 1.000000 -1.000000 0.000000 0.000000 -1.000000 0.375000 0.500000
-1.000000 0.000000 -1.000000 -1.000000 -0.000000 0.000000 0.375000 0.125000
-1.000000 1.000000 -1.000000 -1.000000 -0.000000 0.000000 0.375000 0.250000
-1.000000 -1.000000 -1.000000 -1.000000 -0.000000 0.000000 0.375000 0.000000
-1.000000 -1.000000 0.000000 -1.000000 -0.000000 0.000000 0.500000 0.000000
-1.000000 -1.000000 1.000000 -1.000000 -0.000000 0.000000 0.625000 0.000000
0.000000 -1.000000 -1.000000 0.000000 -1.000000 0.000000 0.375000 0.875000
-1.000000 -1.000000 -1.000000 0.000000 -1.000000 0.000000 0.375000 1.000000
1.000000 -1.000000 -1.000000 0.000000 -1.000000 0.000000 0.375000 0.750000
1.000000 -1.000000 0.000000 0.000000 -1.000000 0.000000 0.500000 0.750000
1.000000 -1.000000 1.000000 0.000000 -1.000000 0.000000 0.625000 0.750000
1.000000 0.000000 1.000000 0.000000 -0.000000 1.000000 0.625000 0.625000
1.000000 -1.000000 1.000000 0.000000 -0.000000 1.000000 0.625000 0.750000
1.000000 1.000000 1.000000 0.000000 -0.000000 1.000000 0.625000 0.500000
0.000000 1.000000 1.000000 0.000000 -0.000000 1.000000 0.750000 0.500000
-1.000000 1.000000 1.000000 0.000000 -0.000000 1.000000 0.875000 0.500000
4 0 1 2 3
4 4 5 6 7
4 8 9 10 11
4 12 13 14 15
4 16 17 18 19
4 20 21 22 23
4 24 25 26 27
4 28 29 30 31
4 32 33 34 35
4 36 32 35 37
4 38 17 32 36
4 17 18 33 32
4 39 28 31 40
4 41 42 28 39
4 42 43 29 28
4 44 24 27 45
4 46 47 24 44
4 47 48 25 24
4 49 20 23 50
4 51 52 20 49
4 52 53 21 20
4 54 16 19 55
4 56 57 16 54
4 57 38 17 16
4 58 12 15 59
4 60 61 12 58
4 61 62 13 12
4 63 8 11 64
4 65 66 8 63
4 66 67 9 8
4 68 4 7 69
4 70 71 4 68
4 71 72 5 4
4 73 0 3 74
4 75 76 0 73
4 76 77 1 0
